<?xml version="1.0" encoding="UTF-8"?>
<svg width="20px" height="20px" viewBox="0 0 20 20" version="1.1" xmlns="http://www.w3.org/2000/svg" xmlns:xlink="http://www.w3.org/1999/xlink">
    <title>切片</title>
    <g id="考试管理-7月27日" stroke="none" stroke-width="1" fill="none" fill-rule="evenodd">
        <g id="4-1考试管理" transform="translate(-330.000000, -337.000000)">
            <g id="编组-11" transform="translate(320.000000, 192.000000)">
                <g id="编组-6" transform="translate(0.000000, 130.000000)">
                    <g id="考试进程icon备份-2" transform="translate(10.000000, 15.000000)">
                        <rect id="矩形" fill="#FF9015" x="0" y="0" width="20" height="20" rx="4"></rect>
                        <g id="编组" transform="translate(4.000000, 3.000000)" stroke="#FFFFFF" stroke-linecap="round" stroke-linejoin="round" stroke-width="2">
                            <path d="M12,11 L12,11.741 C12,12.983 11.1,14 10,14 L2,14 C0.9,14 0,12.983 0,11.741 L0,11" id="Stroke-1"></path>
                            <path d="M0,3 L0,2.011 C0,0.905 0.9,0 2,0 L10,0 C11.1,0 12,0.905 12,2.011 L12,3" id="Stroke-3"></path>
                            <line x1="0" y1="7" x2="12" y2="7" id="Stroke-5"></line>
                        </g>
                    </g>
                </g>
            </g>
        </g>
    </g>
</svg>