<?xml version="1.0" encoding="UTF-8"?>
<svg width="20px" height="20px" viewBox="0 0 20 20" version="1.1" xmlns="http://www.w3.org/2000/svg" xmlns:xlink="http://www.w3.org/1999/xlink">
    <title>切片</title>
    <g id="考试管理-7月27日" stroke="none" stroke-width="1" fill="none" fill-rule="evenodd">
        <g id="4-1考试管理" transform="translate(-1457.000000, -282.000000)">
            <g id="下拉菜单" transform="translate(1435.000000, 224.000000)">
                <g id="考试进程icon备份-6" transform="translate(22.000000, 58.000000)">
                    <rect id="矩形" x="0" y="0" width="20" height="20"></rect>
                    <g id="编组" transform="translate(3.000000, 3.000000)" stroke="#808080" stroke-linecap="round" stroke-linejoin="round" stroke-width="2">
                        <path d="M0,5 C0,3.9 0.99,3 2.2,3 L11.8,3 C13.01,3 14,3.9 14,5" id="Stroke-1"></path>
                        <path d="M12,7 L12,12.8051 C12,13.4617 11.231,14 10.293,14 L3.707,14 C2.768,14 2,13.4617 2,12.8051 L2,7" id="Stroke-3"></path>
                        <line x1="5.5" y1="6.5" x2="5.5" y2="10.5" id="Stroke-5"></line>
                        <line x1="8.5" y1="6.5" x2="8.5" y2="10.5" id="Stroke-7"></line>
                        <line x1="4.5" y1="0.5" x2="9.5" y2="0.5" id="Stroke-9"></line>
                    </g>
                </g>
            </g>
        </g>
    </g>
</svg>